<?xml version="1.0" encoding="UTF-8" standalone="no"?>
<!-- Created with Inkscape (http://www.inkscape.org/) -->

<svg
   width="512"
   height="512"
   viewBox="0 0 512 512"
   version="1.1"
   id="svg1"
   xmlns="http://www.w3.org/2000/svg"
   xmlns:svg="http://www.w3.org/2000/svg">
  <defs
     id="defs1" />
  <g
     id="layer2">
    <rect
       style="display:inline;fill:#4c892f;fill-opacity:1;fill-rule:evenodd;stroke:#4c892f;stroke-width:4;stroke-linecap:round;stroke-linejoin:round;stroke-dasharray:none;stroke-opacity:1"
       id="rect7"
       width="484.0192"
       height="485.98273"
       x="13.744967"
       y="13.744967"
       ry="34.370987" />
    <path
       style="display:inline;fill:#ededed;fill-opacity:1;fill-rule:evenodd;stroke:#b0b0b0;stroke-width:4;stroke-linecap:round;stroke-linejoin:round;stroke-dasharray:none;stroke-opacity:1"
       d="m 56.943432,176.721 c 4.684695,12.96083 10.61126,25.47247 17.6721,37.30776 5.768098,9.66841 12.660435,19.22188 22.581016,24.54459 5.598902,3.00399 11.955132,4.50751 18.307822,4.62974 6.3527,0.12223 12.6999,-1.11489 18.65423,-3.33249 11.90864,-4.43519 22.07159,-12.66089 30.781,-21.9147 4.38089,-4.65473 8.47105,-9.62848 11.66574,-15.16497 3.19468,-5.53649 5.47957,-11.66761 6.07941,-18.03149 0.59984,-6.36387 -0.55386,-12.9707 -3.80192,-18.47605 -3.24805,-5.50535 -8.67759,-9.80945 -14.92502,-11.16163 -5.34692,-1.15728 -11.08983,-0.11222 -15.82721,2.62385 -4.73737,2.73608 -8.46509,7.10102 -10.68094,12.1029 -2.30587,5.20509 -3.00086,10.99761 -2.94535,16.69032 0.0806,8.26128 1.71829,16.56483 5.30992,24.00494 3.59164,7.44012 9.19011,13.98606 16.28932,18.21174 9.40415,5.59766 21.02694,6.84899 31.74987,4.66023 10.72293,-2.18877 20.59424,-7.61718 29.12069,-14.47806 7.53745,-6.06508 14.28462,-13.51883 17.6721,-22.58102 0.79447,-2.12536 1.40034,-4.33848 1.55684,-6.60207 0.15651,-2.2636 -0.15166,-4.58644 -1.11362,-6.64143 -0.96197,-2.05498 -2.60947,-3.82424 -4.69224,-4.72449 -1.04138,-0.45012 -2.18081,-0.67999 -3.31456,-0.63879 -1.13375,0.0412 -2.26016,0.3561 -3.23603,0.93468 -0.94038,0.55753 -1.73112,1.35212 -2.33529,2.26323 -0.60416,0.91112 -1.02514,1.937 -1.29476,2.99646 -0.53924,2.11892 -0.47655,4.34263 -0.29709,6.52171 0.63589,7.72127 2.747,15.40981 6.85897,21.97593 4.11197,6.56613 10.31999,11.948 17.68562,14.35006 3.47049,1.13179 7.20121,1.59562 10.79961,0.98178 4.58871,-0.78277 8.74366,-3.27327 12.2355,-6.35158 3.49185,-3.0783 6.40255,-6.74704 9.36374,-10.33874 6.60988,-8.01731 13.6803,-15.93296 17.6721,-25.52636 1.35473,-3.2558 2.33724,-6.67018 3.92713,-9.81784 0.70803,-1.40175 1.53768,-2.75372 2.0324,-4.24417 0.24736,-0.74523 0.40871,-1.52364 0.41712,-2.30881 0.008,-0.78516 -0.13984,-1.57826 -0.48596,-2.28307 -0.42114,-0.85757 -1.13055,-1.56406 -1.97247,-2.01568 -0.84192,-0.45162 -1.81123,-0.65155 -2.76567,-0.60858 -1.90886,0.0859 -3.69429,1.13734 -4.93246,2.59271 -1.23817,1.45537 -1.97257,3.28321 -2.39418,5.14692 -0.42162,1.8637 -0.54866,3.77932 -0.6984,5.68425 -0.28328,3.60364 -0.65231,7.19991 -0.98178,10.79962 -0.43734,4.77833 -0.80513,9.58503 -0.45909,14.37084 0.34604,4.78581 1.43279,9.57996 3.75082,13.78121 2.31803,4.20124 5.9437,7.7796 10.42411,9.49707 2.2402,0.85873 4.66998,1.24299 7.06048,1.03946 2.3905,-0.20352 4.73766,-1.00188 6.71361,-2.3626 2.38515,-1.64251 4.17405,-4.05856 5.35659,-6.70211 1.18255,-2.64356 1.78655,-5.51424 2.10797,-8.39235 0.64286,-5.75621 0.18985,-11.63421 1.37149,-17.30439 1.04654,-5.02187 3.34743,-9.70968 6.11727,-14.02737 2.76983,-4.31769 6.01477,-8.30642 9.14445,-12.37084 3.12968,-4.06443 6.16561,-8.23817 8.45618,-12.82813 2.29058,-4.58995 3.82102,-9.64222 3.77203,-14.77174 -0.042,-4.39395 -1.2382,-8.71422 -2.94535,-12.76319 -2.47582,-5.87208 -6.11675,-11.35481 -11.12032,-15.30136 -5.00356,-3.94655 -11.45251,-6.24966 -17.78991,-5.58011 -3.1687,0.33477 -6.26933,1.40638 -8.91211,3.1864 -2.64279,1.78001 -4.81597,4.27413 -6.12476,7.17926 -1.3088,2.90513 -1.7355,6.21673 -1.10627,9.34032 0.62923,3.12359 2.32799,6.03785 4.80026,8.04798 1.95812,1.59209 4.37201,2.60383 6.87248,2.94535 2.86358,0.39111 5.81297,-0.0885 8.49282,-1.1708 2.67984,-1.08234 5.09875,-2.75228 7.21571,-4.7199 6.71672,-6.2429 10.32934,-15.6984 9.40577,-24.82173 -0.92357,-9.123334 -6.38949,-17.690896 -14.31468,-22.303871 -6.09987,-3.550519 -13.34735,-4.753222 -20.4015,-4.521717 -7.05415,0.231504 -13.98789,1.821329 -20.8334,3.539933 -5.16226,1.296014 -10.4419,2.733383 -14.72675,5.8907 -2.6467,1.950236 -4.85968,4.567749 -6.00475,7.649508 -1.14507,3.081759 -1.15017,6.640447 0.30949,9.586257 0.72983,1.47291 1.81343,2.77521 3.15659,3.72286 1.34316,0.94764 2.94586,1.53428 4.58679,1.63148 1.64093,0.0972 3.31462,-0.30175 4.71164,-1.16801 1.39703,-0.86627 2.50589,-2.20171 3.05807,-3.75 0.42087,-1.1801 0.51841,-2.46533 0.34768,-3.70655 -0.17073,-1.24122 -0.6048,-2.439176 -1.20922,-3.536653 -1.20884,-2.194954 -3.06758,-3.960703 -5.02916,-5.519975 -3.12784,-2.486342 -6.57746,-4.534695 -9.81783,-6.872483 -3.61183,-2.605782 -6.97221,-5.576901 -10.79962,-7.854267 -5.70825,-3.396499 -12.35061,-5.144011 -18.99231,-5.234348 -6.64171,-0.09034 -13.27333,1.453827 -19.29724,4.252565 -3.09166,1.436402 -6.06717,3.228705 -8.42861,5.687403 -2.36145,2.458699 -4.07771,5.639987 -4.33457,9.039346 -0.15536,2.056134 0.23139,4.157468 1.15535,6.000866 0.92397,1.843398 2.3882,3.420026 4.18422,4.433026 1.79601,1.013 3.91943,1.4508 5.96359,1.18014 2.04415,-0.27066 3.99465,-1.25721 5.38716,-2.77798 1.86947,-2.041676 2.64826,-4.947255 2.38811,-7.703282 -0.26014,-2.756028 -1.48818,-5.361391 -3.1779,-7.554151 -3.37945,-4.385519 -8.41268,-7.103628 -12.95518,-10.268935 -4.68523,-3.264765 -8.94596,-7.096269 -13.49565,-10.547411 -4.54969,-3.451143 -9.47846,-6.561677 -14.97607,-8.106472 -6.35046,-1.784441 -13.22123,-1.367949 -19.49144,0.680694 -6.27022,2.048643 -11.95779,5.677092 -16.83454,10.118923 -2.28298,2.079379 -4.41489,4.359533 -6.03393,6.989077 -1.61904,2.629544 -2.71131,5.632781 -2.80212,8.719456 -0.0522,1.773077 0.23086,3.567692 0.93613,5.195304 0.70527,1.627612 1.84354,3.082338 3.32099,4.064004 1.47745,0.981666 3.29843,1.470014 5.05818,1.246856 1.75975,-0.223157 3.43553,-1.182812 4.42967,-2.651898 0.68021,-1.005184 1.03152,-2.216348 1.07509,-3.429273 0.0436,-1.212924 -0.21271,-2.426964 -0.66794,-3.552062 -0.91047,-2.250197 -2.57722,-4.107021 -4.33429,-5.781848 -6.014,-5.732509 -13.47616,-9.899009 -21.4579,-12.205868 -7.98174,-2.30686 -16.46881,-2.767562 -24.685912,-1.539098 -4.674326,0.698816 -9.292111,1.947109 -13.538256,4.022661 -4.246146,2.075551 -8.117227,5.000098 -11.006327,8.740522 -3.014085,3.902238 -4.914823,8.69503 -5.166386,13.619346 -0.251563,4.924316 1.186839,9.955795 4.184603,13.870585 3.101294,4.04999 7.774709,6.78864 12.763183,7.85427 0.486906,0.10401 0.979121,0.19319 1.476675,0.21152 0.497553,0.0183 1.002744,-0.036 1.468675,-0.21152 0.760613,-0.28651 1.385152,-0.89599 1.729377,-1.63229 0.344226,-0.7363 0.413653,-1.58994 0.235378,-2.38293 -0.178276,-0.793 -0.597348,-1.52416 -1.160127,-2.11059 -0.56278,-0.58643 -1.265735,-1.03068 -2.021423,-1.32995 -1.511376,-0.59852 -3.195991,-0.61556 -4.806457,-0.39446 -1.610467,0.22111 -3.180308,0.66935 -4.776364,0.97773 -5.677426,1.09696 -11.52795,0.40452 -17.308646,0.54607 -2.890347,0.0708 -5.794676,0.35521 -8.570306,1.16453 -2.775631,0.80931 -5.42852,2.16488 -7.501681,4.1801 -3.188805,3.09969 -4.766906,7.47865 -5.8907,11.7814 -1.483561,5.68021 -2.356277,11.55605 -2.088556,17.42069 0.26772,5.86465 1.706846,11.72793 4.619598,16.82514 2.912753,5.09722 7.350079,9.39319 12.744373,11.70994 5.394294,2.31675 11.745735,2.54306 17.123435,0.18805 4.299476,-1.88284 7.824281,-5.3108 10.249816,-9.32918 2.425536,-4.01837 3.800033,-8.60723 4.476933,-13.25184 0.190061,-1.30412 0.324942,-2.64992 0,-3.92713 -0.320994,-1.26169 -1.075141,-2.37758 -1.969293,-3.32384 -0.894152,-0.94626 -1.931554,-1.74302 -2.939623,-2.56686 -2.716407,-2.21996 -5.252457,-4.66582 -8.101007,-6.71346 -2.84855,-2.04765 -6.083316,-3.70865 -9.571093,-4.08616 -3.886888,-0.42071 -7.88094,0.82745 -11.001071,3.18322 -3.12013,2.35578 -5.379044,5.76594 -6.589467,9.48343 -1.210423,3.7175 -1.401366,7.7286 -0.819762,11.59469 0.581605,3.86609 1.919245,7.594 3.68355,11.08286 3.067998,6.06687 7.452828,11.46359 12.763183,15.70854 z"
       id="path7" />
    <path
       style="display:inline;fill:#ededed;fill-opacity:1;fill-rule:evenodd;stroke:#b0b0b0;stroke-width:4;stroke-linecap:round;stroke-linejoin:round;stroke-dasharray:none;stroke-opacity:1"
       d="m 56.943432,176.721 c 4.684695,12.96083 10.61126,25.47247 17.6721,37.30776 5.768098,9.66841 12.660435,19.22188 22.581016,24.54459 5.598902,3.00399 11.955132,4.50751 18.307822,4.62974 6.3527,0.12223 12.6999,-1.11489 18.65423,-3.33249 11.90864,-4.43519 22.07159,-12.66089 30.781,-21.9147 4.38089,-4.65473 8.47105,-9.62848 11.66574,-15.16497 3.19468,-5.53649 5.47957,-11.66761 6.07941,-18.03149 0.59984,-6.36387 -0.55386,-12.9707 -3.80192,-18.47605 -3.24805,-5.50535 -8.67759,-9.80945 -14.92502,-11.16163 -5.34692,-1.15728 -11.08983,-0.11222 -15.82721,2.62385 -4.73737,2.73608 -8.46509,7.10102 -10.68094,12.1029 -2.30587,5.20509 -3.00086,10.99761 -2.94535,16.69032 0.0806,8.26128 1.71829,16.56483 5.30992,24.00494 3.59164,7.44012 9.19011,13.98606 16.28932,18.21174 9.40415,5.59766 21.02694,6.84899 31.74987,4.66023 10.72293,-2.18877 20.59424,-7.61718 29.12069,-14.47806 7.53745,-6.06508 14.28462,-13.51883 17.6721,-22.58102 0.79447,-2.12536 1.40034,-4.33848 1.55684,-6.60207 0.15651,-2.2636 -0.15166,-4.58644 -1.11362,-6.64143 -0.96197,-2.05498 -2.60947,-3.82424 -4.69224,-4.72449 -1.04138,-0.45012 -2.18081,-0.67999 -3.31456,-0.63879 -1.13375,0.0412 -2.26016,0.3561 -3.23603,0.93468 -0.94038,0.55753 -1.73112,1.35212 -2.33529,2.26323 -0.60416,0.91112 -1.02514,1.937 -1.29476,2.99646 -0.53924,2.11892 -0.47655,4.34263 -0.29709,6.52171 0.63589,7.72127 2.747,15.40981 6.85897,21.97593 4.11197,6.56613 10.31999,11.948 17.68562,14.35006 3.47049,1.13179 7.20121,1.59562 10.79961,0.98178 4.58871,-0.78277 8.74366,-3.27327 12.2355,-6.35158 3.49185,-3.0783 6.40255,-6.74704 9.36374,-10.33874 6.60988,-8.01731 13.6803,-15.93296 17.6721,-25.52636 1.35473,-3.2558 2.33724,-6.67018 3.92713,-9.81784 0.70803,-1.40175 1.53768,-2.75372 2.0324,-4.24417 0.24736,-0.74523 0.40871,-1.52364 0.41712,-2.30881 0.008,-0.78516 -0.13984,-1.57826 -0.48596,-2.28307 -0.42114,-0.85757 -1.13055,-1.56406 -1.97247,-2.01568 -0.84192,-0.45162 -1.81123,-0.65155 -2.76567,-0.60858 -1.90886,0.0859 -3.69429,1.13734 -4.93246,2.59271 -1.23817,1.45537 -1.97257,3.28321 -2.39418,5.14692 -0.42162,1.8637 -0.54866,3.77932 -0.6984,5.68425 -0.28328,3.60364 -0.65231,7.19991 -0.98178,10.79962 -0.43734,4.77833 -0.80513,9.58503 -0.45909,14.37084 0.34604,4.78581 1.43279,9.57996 3.75082,13.78121 2.31803,4.20124 5.9437,7.7796 10.42411,9.49707 2.2402,0.85873 4.66998,1.24299 7.06048,1.03946 2.3905,-0.20352 4.73766,-1.00188 6.71361,-2.3626 2.38515,-1.64251 4.17405,-4.05856 5.35659,-6.70211 1.18255,-2.64356 1.78655,-5.51424 2.10797,-8.39235 0.64286,-5.75621 0.18985,-11.63421 1.37149,-17.30439 1.04654,-5.02187 3.34743,-9.70968 6.11727,-14.02737 2.76983,-4.31769 6.01477,-8.30642 9.14445,-12.37084 3.12968,-4.06443 6.16561,-8.23817 8.45618,-12.82813 2.29058,-4.58995 3.82102,-9.64222 3.77203,-14.77174 -0.042,-4.39395 -1.2382,-8.71422 -2.94535,-12.76319 -2.47582,-5.87208 -6.11675,-11.35481 -11.12032,-15.30136 -5.00356,-3.94655 -11.45251,-6.24966 -17.78991,-5.58011 -3.1687,0.33477 -6.26933,1.40638 -8.91211,3.1864 -2.64279,1.78001 -4.81597,4.27413 -6.12476,7.17926 -1.3088,2.90513 -1.7355,6.21673 -1.10627,9.34032 0.62923,3.12359 2.32799,6.03785 4.80026,8.04798 1.95812,1.59209 4.37201,2.60383 6.87248,2.94535 2.86358,0.39111 5.81297,-0.0885 8.49282,-1.1708 2.67984,-1.08234 5.09875,-2.75228 7.21571,-4.7199 6.71672,-6.2429 10.32934,-15.6984 9.40577,-24.82173 -0.92357,-9.123334 -6.38949,-17.690896 -14.31468,-22.303871 -6.09987,-3.550519 -13.34735,-4.753222 -20.4015,-4.521717 -7.05415,0.231504 -13.98789,1.821329 -20.8334,3.539933 -5.16226,1.296014 -10.4419,2.733383 -14.72675,5.8907 -2.6467,1.950236 -4.85968,4.567749 -6.00475,7.649508 -1.14507,3.081759 -1.15017,6.640447 0.30949,9.586257 0.72983,1.47291 1.81343,2.77521 3.15659,3.72286 1.34316,0.94764 2.94586,1.53428 4.58679,1.63148 1.64093,0.0972 3.31462,-0.30175 4.71164,-1.16801 1.39703,-0.86627 2.50589,-2.20171 3.05807,-3.75 0.42087,-1.1801 0.51841,-2.46533 0.34768,-3.70655 -0.17073,-1.24122 -0.6048,-2.439176 -1.20922,-3.536653 -1.20884,-2.194954 -3.06758,-3.960703 -5.02916,-5.519975 -3.12784,-2.486342 -6.57746,-4.534695 -9.81783,-6.872483 -3.61183,-2.605782 -6.97221,-5.576901 -10.79962,-7.854267 -5.70825,-3.396499 -12.35061,-5.144011 -18.99231,-5.234348 -6.64171,-0.09034 -13.27333,1.453827 -19.29724,4.252565 -3.09166,1.436402 -6.06717,3.228705 -8.42861,5.687403 -2.36145,2.458699 -4.07771,5.639987 -4.33457,9.039346 -0.15536,2.056134 0.23139,4.157468 1.15535,6.000866 0.92397,1.843398 2.3882,3.420026 4.18422,4.433026 1.79601,1.013 3.91943,1.4508 5.96359,1.18014 2.04415,-0.27066 3.99465,-1.25721 5.38716,-2.77798 1.86947,-2.041676 2.64826,-4.947255 2.38811,-7.703282 -0.26014,-2.756028 -1.48818,-5.361391 -3.1779,-7.554151 -3.37945,-4.385519 -8.41268,-7.103628 -12.95518,-10.268935 -4.68523,-3.264765 -8.94596,-7.096269 -13.49565,-10.547411 -4.54969,-3.451143 -9.47846,-6.561677 -14.97607,-8.106472 -6.35046,-1.784441 -13.22123,-1.367949 -19.49144,0.680694 -6.27022,2.048643 -11.95779,5.677092 -16.83454,10.118923 -2.28298,2.079379 -4.41489,4.359533 -6.03393,6.989077 -1.61904,2.629544 -2.71131,5.632781 -2.80212,8.719456 -0.0522,1.773077 0.23086,3.567692 0.93613,5.195304 0.70527,1.627612 1.84354,3.082338 3.32099,4.064004 1.47745,0.981666 3.29843,1.470014 5.05818,1.246856 1.75975,-0.223157 3.43553,-1.182812 4.42967,-2.651898 0.68021,-1.005184 1.03152,-2.216348 1.07509,-3.429273 0.0436,-1.212924 -0.21271,-2.426964 -0.66794,-3.552062 -0.91047,-2.250197 -2.57722,-4.107021 -4.33429,-5.781848 -6.014,-5.732509 -13.47616,-9.899009 -21.4579,-12.205868 -7.98174,-2.30686 -16.46881,-2.767562 -24.685912,-1.539098 -4.674326,0.698816 -9.292111,1.947109 -13.538256,4.022661 -4.246146,2.075551 -8.117227,5.000098 -11.006327,8.740522 -3.014085,3.902238 -4.914823,8.69503 -5.166386,13.619346 -0.251563,4.924316 1.186839,9.955795 4.184603,13.870585 3.101294,4.04999 7.774709,6.78864 12.763183,7.85427 0.486906,0.10401 0.979121,0.19319 1.476675,0.21152 0.497553,0.0183 1.002744,-0.036 1.468675,-0.21152 0.760613,-0.28651 1.385152,-0.89599 1.729377,-1.63229 0.344226,-0.7363 0.413653,-1.58994 0.235378,-2.38293 -0.178276,-0.793 -0.597348,-1.52416 -1.160127,-2.11059 -0.56278,-0.58643 -1.265735,-1.03068 -2.021423,-1.32995 -1.511376,-0.59852 -3.195991,-0.61556 -4.806457,-0.39446 -1.610467,0.22111 -3.180308,0.66935 -4.776364,0.97773 -5.677426,1.09696 -11.52795,0.40452 -17.308646,0.54607 -2.890347,0.0708 -5.794676,0.35521 -8.570306,1.16453 -2.775631,0.80931 -5.42852,2.16488 -7.501681,4.1801 -3.188805,3.09969 -4.766906,7.47865 -5.8907,11.7814 -1.483561,5.68021 -2.356277,11.55605 -2.088556,17.42069 0.26772,5.86465 1.706846,11.72793 4.619598,16.82514 2.912753,5.09722 7.350079,9.39319 12.744373,11.70994 5.394294,2.31675 11.745735,2.54306 17.123435,0.18805 4.299476,-1.88284 7.824281,-5.3108 10.249816,-9.32918 2.425536,-4.01837 3.800033,-8.60723 4.476933,-13.25184 0.190061,-1.30412 0.324942,-2.64992 0,-3.92713 -0.320994,-1.26169 -1.075141,-2.37758 -1.969293,-3.32384 -0.894152,-0.94626 -1.931554,-1.74302 -2.939623,-2.56686 -2.716407,-2.21996 -5.252457,-4.66582 -8.101007,-6.71346 -2.84855,-2.04765 -6.083316,-3.70865 -9.571093,-4.08616 -3.886888,-0.42071 -7.88094,0.82745 -11.001071,3.18322 -3.12013,2.35578 -5.379044,5.76594 -6.589467,9.48343 -1.210423,3.7175 -1.401366,7.7286 -0.819762,11.59469 0.581605,3.86609 1.919245,7.594 3.68355,11.08286 3.067998,6.06687 7.452828,11.46359 12.763183,15.70854 z"
       id="path7-9"
       transform="translate(153.27476,-18.117067)" />
    <path
       style="display:inline;fill:#000000;fill-opacity:1;fill-rule:evenodd;stroke:#ffffff;stroke-width:4;stroke-linecap:round;stroke-linejoin:round;stroke-dasharray:none;stroke-opacity:1"
       d="m 497.76414,353.44199 c -0.69808,0.82509 -1.64064,1.44071 -2.67673,1.74828 -1.0361,0.30756 -2.16188,0.30594 -3.19708,-0.005 -1.03521,-0.31056 -1.97598,-0.9289 -2.67167,-1.756 -0.69569,-0.8271 -1.14373,-1.8599 -1.27235,-2.933 -0.047,-0.39184 -0.0535,-0.79383 -0.18165,-1.1671 -0.0641,-0.18663 -0.15921,-0.36468 -0.29426,-0.50855 -0.13505,-0.14387 -0.31182,-0.25213 -0.50587,-0.28791 -0.17026,-0.0314 -0.34635,-0.007 -0.51381,0.0372 -0.16747,0.0439 -0.3294,0.10679 -0.49608,0.15358 -0.16669,0.0468 -0.34121,0.0775 -0.51286,0.0549 -0.0858,-0.0113 -0.17025,-0.036 -0.24657,-0.0769 -0.0763,-0.0408 -0.1444,-0.098 -0.19425,-0.1688 -0.0487,-0.0691 -0.0793,-0.14997 -0.0946,-0.23306 -0.0153,-0.0831 -0.0158,-0.16845 -0.008,-0.25254 0.0165,-0.16818 0.0673,-0.33083 0.10213,-0.49619 0.13847,-0.65673 0.0186,-1.35804 -0.29655,-1.95059 -0.31521,-0.59254 -0.81883,-1.07681 -1.40513,-1.40348 -0.5863,-0.32667 -1.25263,-0.49909 -1.92267,-0.53788 -0.67004,-0.0388 -1.34406,0.0536 -1.99098,0.23232 -1.29384,0.35752 -2.46637,1.05038 -3.60708,1.75792 -1.14071,0.70755 -2.27911,1.44339 -3.54077,1.90171 -2.64868,0.96218 -5.56753,0.61804 -8.36967,0.31921 -1.40107,-0.14941 -2.80893,-0.28448 -4.2169,-0.23021 -1.40797,0.0543 -2.8238,0.30367 -4.10375,0.89279 -1.34968,0.62122 -2.50022,1.59428 -3.73395,2.42221 -1.23373,0.82793 -2.63483,1.53453 -4.12032,1.50492 -0.32875,-0.007 -0.65564,-0.0493 -0.98386,-0.069 -0.32823,-0.0197 -0.66201,-0.0158 -0.9797,0.069 -0.57497,0.1535 -1.04634,0.55542 -1.48866,0.95355 -0.44233,0.39812 -0.8945,0.81483 -1.45669,1.01002 -0.65543,0.22756 -1.38493,0.1232 -2.03861,-0.10933 -0.65368,-0.23254 -1.25643,-0.58642 -1.88853,-0.87246 -1.67301,-0.75709 -3.52156,-1.0269 -5.3487,-1.21049 -1.82713,-0.18359 -3.67362,-0.29113 -5.45091,-0.75307 -2.84557,-0.73961 -5.37496,-2.34839 -7.85215,-3.93199 -2.4772,-1.5836 -5.00904,-3.18954 -7.85639,-3.92228 -2.24276,-0.57716 -4.59047,-0.58742 -6.87248,-0.98178 -6.21633,-1.07426 -11.6791,-4.9953 -15.65866,-9.89018 -3.97956,-4.89488 -6.6261,-10.72815 -8.88592,-16.61797 -1.15644,-3.01406 -2.23515,-6.08667 -3.92714,-8.83605 -1.38871,-2.25658 -3.20192,-4.32401 -3.92713,-6.87249 -0.40672,-1.42927 -0.44568,-2.93355 -0.48417,-4.41906 -0.0385,-1.48551 -0.0822,-2.99023 -0.49761,-4.41698 -0.29079,-0.99864 -0.75716,-1.93535 -1.1637,-2.89272 -0.40654,-0.95738 -0.75858,-1.95869 -0.79987,-2.99798 -0.026,-0.65451 0.072,-1.31251 0,-1.96357 -0.0813,-0.73514 -0.37703,-1.43181 -0.74563,-2.07304 -0.3686,-0.64123 -0.81126,-1.23631 -1.21794,-1.85409 -2.98302,-4.53145 -3.92864,-10.17187 -3.58113,-15.5859 0.34751,-5.41403 1.90118,-10.67266 3.58113,-15.83117 1.15687,-3.55233 2.38407,-7.10607 2.94535,-10.79962 0.60547,-3.98433 0.42252,-8.04226 0.67952,-12.06412 0.257,-4.02186 1.00791,-8.14829 3.24762,-11.49868 0.65644,-0.98197 1.43543,-1.88881 1.96356,-2.94535 0.74996,-1.50034 0.94895,-3.20848 1.09674,-4.8793 0.14779,-1.67081 0.26226,-3.37394 0.86683,-4.93853 0.68913,-1.78345 1.96744,-3.26597 2.94535,-4.90892 2.00048,-3.36094 2.70435,-7.31729 3.26195,-11.18858 0.55759,-3.87129 1.0234,-7.82582 2.62875,-11.39243 1.50585,-3.34555 3.98147,-6.26817 4.90892,-9.81784 0.42209,-1.61549 0.50609,-3.30838 0.98178,-4.90891 0.96277,-3.23935 3.4233,-5.80072 4.90892,-8.83605 1.50472,-3.07436 1.96621,-6.53803 2.94535,-9.81784 1.39307,-4.66635 3.84667,-8.99237 4.90891,-13.74496 0.86083,-3.85144 0.77615,-7.84029 0.98179,-11.7814 0.53091,-10.17511 3.01223,-20.450701 0.98178,-30.435285 -0.87115,-4.283811 -2.56136,-8.40859 -2.94535,-12.763183 -0.3427,-3.886401 0.37122,-7.784155 0.42752,-11.68523 0.0281,-1.950538 -0.11093,-3.916998 -0.62053,-5.800003 -0.50959,-1.883004 -1.40424,-3.685811 -2.75234,-5.095783 -1.93458,-2.023375 -4.66377,-3.108626 -7.40064,-3.696999 -2.73687,-0.588373 -5.54903,-0.73718 -8.30789,-1.211918 -4.09291,-0.7043 -8.04055,-2.123242 -11.7814,-3.927133 -2.90781,-1.402186 -5.72932,-3.049799 -8.83605,-3.927133 -1.29875,-0.366765 -2.63433,-0.594593 -3.92714,-0.981784 -4.91818,-1.472975 -8.91113,-5.142701 -13.74496,-6.872483 -4.16084,-1.488951 -8.75284,-1.452693 -13.07927,-0.551797 -4.32642,0.900895 -8.43336,2.629752 -12.4471,4.47893 -2.92801,1.348971 -5.82743,2.769034 -8.83605,3.927134 -2.83168,1.089991 -5.80185,1.952133 -8.83605,1.963566 -1.31015,0.0049 -2.62544,-0.148715 -3.92713,0 -1.61179,0.184143 -3.13737,0.82535 -4.57251,1.581748 -1.43514,0.756398 -2.80537,1.634395 -4.26354,2.345386 -4.93897,2.408197 -10.63795,2.791824 -15.70853,4.908916 -7.45133,3.111115 -12.85235,9.624004 -17.85924,15.959013 -5.0069,6.335008 -10.20122,12.954381 -17.48496,16.439837 -1.32157,0.632404 -2.70433,1.15659 -3.92714,1.963566 -1.97343,1.302335 -3.40589,3.253306 -4.9869,5.011406 -0.7905,0.879051 -1.63146,1.721608 -2.59375,2.408356 -0.96229,0.686748 -2.0539,1.215618 -3.21896,1.416288 -1.68502,0.290229 -3.41762,-0.114865 -5.12024,0.04201 -0.8513,0.07844 -1.70645,0.306218 -2.40914,0.793152 -0.35135,0.243468 -0.66083,0.550343 -0.89129,0.910359 -0.23045,0.360015 -0.38048,0.773795 -0.41538,1.199825 -0.0267,0.326314 0.0134,0.654651 0,0.981783 -0.0222,0.540777 -0.19169,1.069789 -0.44993,1.545438 -0.25825,0.475649 -0.60346,0.900075 -0.98594,1.283009 -0.76496,0.765869 -1.67624,1.368114 -2.49127,2.08047 -1.95335,1.707275 -3.30547,4.006655 -4.31412,6.396845 -1.00865,2.39018 -1.70376,4.89862 -2.55836,7.34812 -2.87198,8.2318 -7.57867,15.91731 -8.83605,24.54458 -0.28748,1.97247 -0.39252,3.98648 -0.98178,5.8907 -0.73758,2.38352 -2.20269,4.49055 -2.94535,6.87249 -0.88534,2.83953 -0.69315,5.90085 -0.24701,8.84154 0.44614,2.9407 1.13822,5.85759 1.22879,8.83056 0.0406,1.33314 -0.0403,2.66886 0.0339,4.00055 0.0743,1.33169 0.31303,2.68071 0.94784,3.85371 0.56713,1.04795 1.42096,1.90542 2.19707,2.80958 0.77611,0.90416 1.50324,1.91134 1.73007,3.08112 0.18738,0.96632 0.0177,1.96119 0,2.94535 -0.034,1.88569 0.50049,3.75863 1.39059,5.42137 0.8901,1.66274 2.12698,3.12322 3.51832,4.39647 2.07969,1.90318 4.49502,3.39404 6.87249,4.90891 7.55718,4.81524 15.02091,10.05511 23.5628,12.76319 4.98375,1.58003 10.20366,2.25205 15.29572,3.43747 5.09206,1.18543 10.1999,2.9643 14.15778,6.38036 3.76583,3.2503 6.21248,7.73246 8.51361,12.14276 2.30112,4.41031 4.60301,8.94137 8.1767,12.40182 1.50675,1.45901 3.21029,2.69682 4.90892,3.92714 2.76092,1.99974 5.537,4.00313 7.98195,6.37881 2.44494,2.37568 4.56495,5.15635 5.76301,8.34794 1.28909,3.43409 1.45769,7.1666 1.96357,10.79961 0.59109,4.24501 1.66062,8.53132 0.98178,12.76319 -0.49271,3.07152 -1.87964,5.91351 -2.94535,8.83605 -2.88502,7.91168 -3.43222,16.49014 -5.89069,24.54458 -0.68908,2.25757 -1.52712,4.46953 -2.14572,6.74742 -0.6186,2.2779 -1.0167,4.64714 -0.79963,6.99754 0.0607,0.65756 0.16931,1.31062 0.20834,1.96983 0.039,0.6592 0.006,1.33277 -0.20834,1.95731 -0.19253,0.56045 -0.52451,1.06232 -0.88369,1.53366 -0.35918,0.47134 -0.74943,0.91978 -1.07988,1.41169 -0.98616,1.46801 -1.38854,3.23652 -1.96357,4.90891 -1.36453,3.96853 -3.79357,7.54635 -6.87888,10.39099 -3.08531,2.84465 -6.81521,4.9627 -10.79322,6.29933 -8.91926,2.99692 -18.94368,1.97298 -27.48993,-1.96357 -3.87827,-1.7864 -7.57517,-4.17418 -11.7814,-4.90891 -4.91992,-0.85939 -9.90467,0.64444 -14.71959,1.97138 -2.40746,0.66347 -4.83666,1.2884 -7.31933,1.55747 -2.48267,0.26907 -5.03457,0.17254 -7.41458,-0.5835 -2.58591,-0.82145 -4.88257,-2.39375 -6.8689,-4.24205 -1.98633,-1.84831 -3.68854,-3.9761 -5.385,-6.09359 -1.69646,-2.11749 -3.40327,-4.24211 -5.3971,-6.08233 -1.99382,-1.84022 -4.30108,-3.39908 -6.89358,-4.19948 -3.4727,-1.07215 -7.26089,-0.71833 -10.7349,0.34957 -3.47401,1.06789 -6.69356,2.81593 -9.88255,4.55934 -3.3508,1.83187 -6.70626,3.67673 -9.81784,5.8907 -1.5611,1.11077 -3.09387,2.33178 -4.90891,2.94535 -1.78472,0.60332 -3.74176,0.57266 -5.57823,0.15244 -1.83648,-0.42021 -3.56708,-1.21462 -5.22139,-2.116 -7.18386,-3.91424 -13.10419,-9.90333 -17.6721,-16.69032 -1.43607,-2.1337 -2.80458,-4.41194 -4.90892,-5.8907 -1.5536,-1.09174 -3.44235,-1.67722 -5.33999,-1.74472 -1.89764,-0.0675 -3.800454,0.37302 -5.516062,1.18682 -3.431217,1.62761 -6.030974,4.68393 -7.739052,8.07581 -3.416157,6.78375 -3.516579,14.74042 -5.949474,21.93559 -2.35176,6.95522 -6.933805,13.12457 -12.865042,17.45195 -5.931237,4.32738 -13.179213,6.80393 -20.515591,7.09263 -8.896158,0.35008 -17.620781,-2.41727 -26.508149,-2.94535 -4.598314,-0.27323 -9.232172,0.0578 -13.7449668,0.98179 l 6.3815908,112.41419 30.933533,13.59433 435.413543,-0.34026 20.12656,-37.30776 z"
       id="path6" />
  </g>
  <g
     id="layer1">
    <rect
       style="display:inline;fill:none;fill-rule:evenodd;stroke:#896a09;stroke-width:18.9188;stroke-linecap:round;stroke-linejoin:round;stroke-dasharray:none;stroke-opacity:1"
       id="rect1"
       width="493.08121"
       height="493.08093"
       x="9.4593916"
       y="9.4593916"
       ry="34.370987" />
    <rect
       style="display:inline;fill:#ffbb2a;fill-opacity:1;fill-rule:evenodd;stroke:#765b08;stroke-width:4;stroke-linecap:round;stroke-linejoin:round;stroke-dasharray:none;stroke-opacity:1"
       id="rect2"
       width="246.42761"
       height="246.42761"
       x="46.634708"
       y="252.31831"
       ry="34.370987" />
    <path
       style="display:inline;fill:#000000;fill-opacity:1;fill-rule:evenodd;stroke:#765b08;stroke-width:4;stroke-linecap:round;stroke-linejoin:round;stroke-dasharray:none;stroke-opacity:1"
       id="path3"
       d="m 152.41917,323.64856 a 40.09153,15.099408 0 0 1 -40.07035,15.09941 40.09153,15.099408 0 0 1 -40.112691,-15.08345 40.09153,15.099408 0 0 1 40.027951,-15.11535 40.09153,15.099408 0 0 1 40.155,15.06748" />
    <path
       style="display:inline;fill:#000000;fill-opacity:1;fill-rule:evenodd;stroke:#765b08;stroke-width:4;stroke-linecap:round;stroke-linejoin:round;stroke-dasharray:none;stroke-opacity:1"
       id="path4"
       d="m 241.95608,324.42868 a 20.461462,30.268272 0 0 1 -20.45065,30.26827 20.461462,30.268272 0 0 1 -20.47227,-30.23628 20.461462,30.268272 0 0 1 20.42902,-30.30022 20.461462,30.268272 0 0 1 20.49385,30.20426" />
    <path
       style="display:inline;fill:#000000;fill-opacity:1;fill-rule:evenodd;stroke:#765b08;stroke-width:4;stroke-linecap:round;stroke-linejoin:round;stroke-dasharray:none;stroke-opacity:1"
       d="m 137.80379,346.4186 c -1.052,-5.17498 -0.68829,-10.63054 1.04134,-15.62008 0.67613,-1.95047 1.55407,-3.82522 2.26184,-5.76444 0.70777,-1.93921 1.24836,-3.97343 1.20929,-6.0374 -0.0393,-2.07829 -0.66336,-4.16975 -0.25559,-6.20802 0.20389,-1.01913 0.68763,-2.01119 1.49653,-2.66379 0.40445,-0.3263 0.88533,-0.56187 1.39612,-0.65748 0.5108,-0.0956 1.05097,-0.0482 1.52829,0.15725 0.38205,0.16446 0.71743,0.42556 1.00166,0.72925 0.28423,0.30369 0.51952,0.64987 0.7339,1.00631 0.90972,1.51254 1.45154,3.21123 2.08268,4.85958 2.01496,5.26247 4.98259,10.09764 7.49413,15.14203 2.51153,5.04439 4.60315,10.46332 4.65482,16.09812 0.008,0.8333 -0.0295,1.66748 0.0156,2.4996 0.0451,0.83211 0.1753,1.6695 0.50295,2.43573 0.32764,0.76623 0.8664,1.46045 1.59298,1.86854 0.36329,0.20405 0.76985,0.33398 1.1855,0.36308 0.41566,0.0291 0.83997,-0.0441 1.21548,-0.22469 0.59803,-0.28758 1.03886,-0.82443 1.38845,-1.38845 1.27551,-2.05786 1.55015,-4.58925 1.42592,-7.00716 -0.12423,-2.41791 -0.61278,-4.80629 -0.7317,-7.22447 -0.35539,-7.22659 2.59156,-14.28748 2.42979,-21.52099 -0.0726,-3.24858 -0.7709,-6.52897 -0.15039,-9.71857 0.31025,-1.59479 0.96775,-3.15164 2.07597,-4.3397 0.55411,-0.59403 1.21698,-1.09015 1.95602,-1.42738 0.73904,-0.33724 1.55471,-0.51336 2.36643,-0.48154 1.16764,0.0458 2.32123,0.53934 3.12402,1.38845 0.97098,1.02701 1.3675,2.45366 1.73556,3.81824 1.36068,5.0447 2.78811,10.09281 3.47113,15.27296 0.18829,1.42801 0.32089,2.8704 0.6978,4.26058 0.37692,1.39018 1.02071,2.74605 2.0791,3.72302 0.30822,0.28451 0.65271,0.53641 1.04134,0.69423 0.6429,0.26108 1.3848,0.24612 2.03324,-8.7e-4 0.64844,-0.247 1.20259,-0.71688 1.58973,-1.29273 0.38714,-0.57585 0.6112,-1.25377 0.68851,-1.94334 0.0773,-0.68957 0.011,-1.39088 -0.14978,-2.06588 -0.32163,-1.34999 -1.0097,-2.58 -1.70019,-3.78381 -0.6905,-1.20381 -1.39875,-2.4186 -1.76728,-3.75655 -0.41752,-1.51583 -0.37726,-3.1358 -0.0303,-4.66934 0.3469,-1.53354 0.99195,-2.98699 1.76591,-4.35559 0.39615,-0.70051 0.83181,-1.38775 1.39946,-1.95821 0.56765,-0.57047 1.27996,-1.02143 2.07167,-1.16581 0.89332,-0.16291 1.83775,0.0821 2.58975,0.59106 0.75201,0.50896 1.31763,1.26666 1.67407,2.10182 0.71289,1.67033 0.60259,3.56849 0.36246,5.36865 -0.24012,1.80015 -0.59795,3.62047 -0.33881,5.41799 0.12957,0.89875 0.418,1.78373 0.91979,2.54054 0.5018,0.7568 1.22605,1.37984 2.08211,1.6827 0.64363,0.22771 1.3461,0.27026 2.02054,0.16423 0.67443,-0.10602 1.32157,-0.35742 1.91372,-0.69723 1.18428,-0.67962 2.13564,-1.6952 3.02824,-2.72849 0.8926,-1.03328 1.75471,-2.10867 2.82329,-2.9587 1.06858,-0.85003 2.38716,-1.46824 3.75161,-1.4163 1.21285,0.0462 2.37138,0.6277 3.23758,1.47789 0.86621,0.85019 1.45576,1.95323 1.82422,3.10967 0.73694,2.31289 0.61828,4.7969 0.83912,7.21428 0.67813,7.42291 4.55748,14.18923 5.90092,21.52099 0.10657,0.58157 0.19727,1.16723 0.35222,1.73782 0.15496,0.57059 0.37716,1.12983 0.72445,1.60834 0.34728,0.47852 0.82786,0.87348 1.39241,1.04917 0.28228,0.0878 0.58288,0.11984 0.87626,0.0834 0.29338,-0.0364 0.57911,-0.14204 0.82001,-0.3134 0.25815,-0.18364 0.46129,-0.4402 0.59588,-0.72699 0.13459,-0.2868 0.20184,-0.6031 0.21224,-0.91973 0.0208,-0.63327 -0.18216,-1.25546 -0.46101,-1.82441 -0.27602,-0.56318 -0.63519,-1.11116 -0.69422,-1.73556 -0.0109,-0.11537 -0.0112,-0.23178 0,-0.34712 0.0314,-0.32383 0.15491,-0.63735 0.34738,-0.89967 0.19247,-0.26231 0.45295,-0.47328 0.7467,-0.61316 0.58749,-0.27975 1.29693,-0.26324 1.89271,-0.002 0.59579,0.26164 1.0771,0.75447 1.37189,1.33456 0.29479,0.5801 0.4094,1.24274 0.37995,1.89278 -0.0589,1.30008 -0.66988,2.50963 -1.3634,3.61086 -0.69351,1.10123 -1.48812,2.15197 -1.98678,3.35405 -0.55857,1.3465 -0.72069,2.83484 -0.62601,4.28952 0.0947,1.45467 0.4384,2.88257 0.8603,4.27794 0.8438,2.79074 2.01458,5.53117 2.1955,8.44107 0.0728,1.17095 -0.0173,2.34587 0.007,3.51882 0.0248,1.17294 0.17217,2.36912 0.68679,3.42344 0.33136,0.67888 0.81435,1.30072 0.96319,2.04135 0.0744,0.37031 0.0575,0.76771 -0.10503,1.10866 -0.0813,0.17047 -0.19836,0.32471 -0.34575,0.4428 -0.14739,0.11808 -0.32538,0.19924 -0.51241,0.22543 -0.17418,0.0244 -0.35332,0.001 -0.51999,-0.0551 -0.16668,-0.0561 -0.32136,-0.14441 -0.46265,-0.24915 -0.28258,-0.20947 -0.51064,-0.48211 -0.75292,-0.73712 -0.46134,-0.48559 -0.98109,-0.91341 -1.43587,-1.40515 -0.45479,-0.49174 -0.85069,-1.06455 -0.99392,-1.71886 -0.0801,-0.36607 -0.0799,-0.75127 -0.21201,-1.10196 -0.066,-0.17534 -0.16663,-0.34093 -0.31014,-0.4614 -0.14351,-0.12046 -0.3329,-0.19225 -0.51919,-0.17221 -0.14251,0.0153 -0.27693,0.0834 -0.38199,0.18091 -0.10506,0.0975 -0.18171,0.22327 -0.23175,0.35758 -0.10008,0.26862 -0.0951,0.56367 -0.0805,0.84996 0.084,1.64805 0.44205,3.28017 0.41317,4.93011 -0.0144,0.82497 -0.12779,1.65451 -0.41284,2.42881 -0.28504,0.77429 -0.74833,1.49294 -1.38879,2.01313 -0.43049,0.34965 -0.93822,0.60622 -1.47854,0.73125 -0.54031,0.12503 -1.1127,0.11702 -1.64547,-0.037 -0.80405,-0.23249 -1.48414,-0.78265 -2.02981,-1.41731 -0.54567,-0.63466 -0.97547,-1.35844 -1.44132,-2.05381 -2.5114,-3.74875 -6.06229,-6.6629 -9.02493,-10.06628 -1.05485,-1.21177 -2.06572,-2.51309 -3.44135,-3.343 -0.68781,-0.41495 -1.46322,-0.70233 -2.26494,-0.75253 -0.80172,-0.0502 -1.63017,0.1485 -2.27731,0.62441 -0.6664,0.49008 -1.10713,1.24727 -1.31363,2.04828 -0.20651,0.80101 -0.19301,1.64546 -0.0748,2.46418 0.0812,0.56273 0.21103,1.13642 0.0956,1.69314 -0.0577,0.27836 -0.1796,0.54792 -0.37727,0.75223 -0.19767,0.20431 -0.47544,0.33801 -0.75965,0.33154 -0.2801,-0.006 -0.54775,-0.14822 -0.73669,-0.35508 -0.18895,-0.20687 -0.30366,-0.47398 -0.35893,-0.74865 -0.11055,-0.54933 0.006,-1.11489 0.0543,-1.67318 0.12512,-1.45718 -0.22776,-2.92598 -0.82047,-4.26304 -0.59271,-1.33705 -1.41896,-2.55655 -2.27994,-3.73881 -0.86098,-1.18226 -1.76292,-2.33794 -2.52844,-3.58413 -0.76553,-1.2462 -1.39646,-2.59558 -1.66051,-4.03409 -0.13309,-0.72506 -0.17483,-1.47725 -0.45767,-2.158 -0.14142,-0.34037 -0.34466,-0.65984 -0.62246,-0.90208 -0.27779,-0.24225 -0.63405,-0.40315 -1.00255,-0.41105 -0.37174,-0.008 -0.73384,0.13806 -1.04134,0.34711 -0.4149,0.28206 -0.74547,0.67914 -0.98018,1.12255 -0.23471,0.44342 -0.37604,0.93243 -0.45065,1.42855 -0.14923,0.99225 -0.0357,2.00234 0.0424,3.00271 0.51544,6.60722 -0.62002,13.49195 -4.16536,19.0912 -0.39773,0.62814 -0.82996,1.24483 -1.38845,1.73557 -0.83901,0.73723 -1.94051,1.15475 -3.05562,1.2177 -1.11511,0.0629 -2.23938,-0.22003 -3.22176,-0.75139 -1.96478,-1.06273 -3.2979,-3.06153 -3.97409,-5.1905 -0.67619,-2.12897 -0.76251,-4.39748 -0.73882,-6.63113 0.0237,-2.23365 0.15132,-4.47699 -0.11732,-6.69455 -0.0647,-0.53439 -0.1541,-1.07207 -0.36413,-1.5677 -0.21003,-0.49563 -0.5521,-0.95081 -1.02432,-1.2092 -0.46947,-0.25688 -1.0428,-0.2998 -1.55783,-0.15444 -0.51503,0.14536 -0.97105,0.47037 -1.31007,0.88444 -0.33903,0.41406 -0.56467,0.91399 -0.6932,1.43348 -0.12852,0.51949 -0.16243,1.05898 -0.14375,1.5938 0.0374,1.06965 0.2819,2.12113 0.37972,3.18695 0.0978,1.06582 0.0352,2.19123 -0.49311,3.12204 -0.31673,0.55803 -0.79127,1.02152 -1.34376,1.3478 -0.5525,0.32629 -1.18108,0.5171 -1.8197,0.57937 -1.27724,0.12456 -2.56663,-0.26294 -3.67982,-0.90141 -2.22639,-1.27693 -3.75484,-3.46335 -5.65278,-5.19112 -1.096,-0.99773 -2.31899,-1.84456 -3.47113,-2.7769 -0.32561,-0.26349 -0.65265,-0.53812 -1.04134,-0.69422 -0.59506,-0.23897 -1.29276,-0.16755 -1.85841,0.1345 -0.56566,0.30205 -1.00158,0.81894 -1.26347,1.40427 -0.2619,0.58533 -0.35735,1.23605 -0.34055,1.87708 0.0168,0.64103 0.14265,1.27483 0.30775,1.89447 0.33019,1.23926 0.82099,2.44765 0.93707,3.72489 0.058,0.63862 0.0191,1.29225 -0.17851,1.90228 -0.19764,0.61003 -0.56098,1.1752 -1.07501,1.55857 -0.58674,0.4376 -1.34862,0.61691 -2.07631,0.53807 -0.7277,-0.0788 -1.4186,-0.40582 -1.97677,-0.87932 -0.55818,-0.4735 -0.98718,-1.08877 -1.28887,-1.75566 -0.30169,-0.66689 -0.47928,-1.38518 -0.57817,-2.11042 -0.19777,-1.45049 -0.0851,-2.92292 -0.10898,-4.38664 -0.0238,-1.46372 -0.19903,-2.97129 -0.91315,-4.24921 -0.33114,-0.59257 -0.76836,-1.11761 -1.16565,-1.66803 -0.39728,-0.55042 -0.76194,-1.14224 -0.91703,-1.8031 -0.0995,-0.42407 -0.11342,-0.87686 -0.31474,-1.26313 -0.10067,-0.19314 -0.25052,-0.36593 -0.44517,-0.46362 -0.0973,-0.0488 -0.2049,-0.0782 -0.31375,-0.0812 -0.10886,-0.003 -0.21889,0.0208 -0.31479,0.0724 -0.11187,0.0602 -0.20204,0.15675 -0.26428,0.26749 -0.0622,0.11073 -0.0975,0.23525 -0.11388,0.36122 -0.0327,0.25194 0.008,0.5067 0.031,0.75974 0.13145,1.46932 -0.36063,2.91163 -0.72441,4.34126 -0.18189,0.71481 -0.33344,1.44189 -0.35922,2.17904 -0.0258,0.73714 0.0787,1.48857 0.3894,2.15752 0.0536,0.11537 0.114,0.23079 0.1301,0.35698 0.008,0.0631 0.004,0.12833 -0.0164,0.18839 -0.0209,0.0601 -0.06,0.11467 -0.11365,0.14886 -0.0508,0.0324 -0.11247,0.0453 -0.17264,0.0429 -0.0602,-0.002 -0.11904,-0.0194 -0.17447,-0.0429 -0.17751,-0.0754 -0.32142,-0.21824 -0.41919,-0.38448 -0.0978,-0.16625 -0.15196,-0.35514 -0.18163,-0.54571 -0.0593,-0.38113 -0.024,-0.77306 -0.0934,-1.15249 -0.0702,-0.38384 -0.24497,-0.74066 -0.44261,-1.07711 -0.19763,-0.33645 -0.42017,-0.65862 -0.59873,-1.00557 -0.52105,-1.01244 -0.6405,-2.17489 -0.877,-3.28871 -0.11824,-0.55691 -0.26884,-1.11064 -0.51297,-1.62498 -0.24412,-0.51433 -0.58627,-0.99022 -1.03982,-1.33434 -0.4003,-0.30372 -0.87521,-0.49645 -1.36037,-0.62724 -0.48515,-0.13078 -0.98386,-0.20254 -1.47937,-0.28595 -0.4955,-0.0834 -0.99186,-0.1795 -1.46223,-0.35623 -0.47037,-0.17673 -0.91691,-0.43867 -1.25183,-0.81325 -0.26278,-0.29389 -0.45466,-0.66442 -0.4762,-1.05807 -0.0108,-0.19683 0.0217,-0.39689 0.1021,-0.57685 0.0804,-0.17996 0.20962,-0.33912 0.3741,-0.44776 0.15331,-0.10127 0.33201,-0.15664 0.51027,-0.20113 0.17827,-0.0445 0.35971,-0.0797 0.53107,-0.14598 0.42485,-0.16438 0.75359,-0.50498 1.05965,-0.84238 0.30607,-0.3374 0.61514,-0.69033 1.02302,-0.89319 0.23248,-0.11562 0.4946,-0.1811 0.69423,-0.34711 0.16592,-0.13798 0.27422,-0.33571 0.33585,-0.54252 0.0616,-0.2068 0.0798,-0.42388 0.0903,-0.63941 0.0105,-0.21554 0.0138,-0.43209 0.047,-0.64531 0.0332,-0.21323 0.098,-0.42528 0.22107,-0.60255 0.17975,-0.25895 0.46982,-0.42319 0.77019,-0.51884 0.30036,-0.0956 0.61598,-0.13057 0.92673,-0.18352 0.31074,-0.053 0.62447,-0.12676 0.89395,-0.29031 0.13474,-0.0818 0.25701,-0.18578 0.35156,-0.31187 0.0946,-0.1261 0.16077,-0.27479 0.18158,-0.43102 0.0351,-0.26343 -0.0584,-0.52696 -0.0613,-0.7927 -0.001,-0.13287 0.0212,-0.26923 0.0892,-0.38336 0.034,-0.0571 0.0792,-0.10785 0.1339,-0.14558 0.0547,-0.0377 0.11901,-0.0621 0.18528,-0.0668 0.0612,-0.004 0.12242,0.008 0.18142,0.0247 0.059,0.0168 0.11663,0.0383 0.17613,0.0533 0.0595,0.0149 0.12176,0.0232 0.18225,0.013 0.0605,-0.0102 0.11932,-0.0406 0.15443,-0.0909 0.0343,-0.0491 0.043,-0.11218 0.0379,-0.17182 -0.005,-0.0596 -0.023,-0.11731 -0.0379,-0.17529 -0.0822,-0.32054 -0.0728,-0.66401 0.0268,-0.97958 0.0996,-0.31557 0.28899,-0.60224 0.54023,-0.81759 0.25124,-0.21535 0.56351,-0.3587 0.89059,-0.40883 0.32709,-0.0501 0.66795,-0.007 0.97216,0.12333 z"
       id="path5"
       transform="translate(-37.798658,86.396932)" />
  </g>
  <g
     id="layer4">
    <text
       xml:space="preserve"
       style="font-size:74.6667px;line-height:0;font-family:sans-serif;-inkscape-font-specification:'sans-serif, Normal';text-align:start;writing-mode:lr-tb;direction:ltr;text-anchor:start;white-space:pre;inline-size:1668.83;display:inline;fill:#63a707;fill-opacity:1;fill-rule:evenodd;stroke:#3f6e26;stroke-width:4;stroke-linecap:round;stroke-linejoin:round;stroke-dasharray:none;stroke-opacity:1"
       x="24.544582"
       y="83.451584"
       id="text7"
       transform="matrix(1.2264088,1.1137109,-1.1137109,1.2264088,60.661852,-59.148324)"><tspan
         x="24.544582"
         y="83.451584"
         id="tspan1">Halloween
</tspan></text>
    <text
       xml:space="preserve"
       style="font-size:74.6667px;line-height:0;font-family:sans-serif;-inkscape-font-specification:'sans-serif, Normal';text-align:start;writing-mode:lr-tb;direction:ltr;text-anchor:start;fill:#63a707;fill-opacity:1;fill-rule:evenodd;stroke:#3f6e26;stroke-width:4;stroke-linecap:round;stroke-linejoin:round;stroke-dasharray:none;stroke-opacity:1"
       x="186.53883"
       y="481.07385"
       id="text8"><tspan
         id="tspan8"
         x="186.53883"
         y="481.07385">2025</tspan></text>
  </g>
</svg>
